PathFileType	4	(X/Y/Z)	D:\TRACE\spotREDO_2-26-24\spot_justBody_Motion_3_5-platform.trc
DataRate	CameraRate	NumFrames	NumMarkers	Units	OrigDataRate	OrigDataStartFrame	OrigNumFrames
100.00	100.00	      30	5	mm	100.00	1751	      7000
Frame#	Time	Left_Front			Right_Front			Left_Aft			Right_Aft			Post			
		X1	Y1	Z1	X2	Y2	Z2	X3	Y3	Z3	X4	Y4	Z4	X5	Y5	Z5	

1751	17.500	-713.58160	-53.99418	-586.22180	701.77649	-38.78137	-502.00024	-785.34149	55.18902	627.51038	784.98517	62.59463	631.33685	-3.55059	536.82880	-1043.56616	
1752	17.510	-712.70996	-54.97152	-586.55853	702.21075	-39.28006	-502.28687	-784.55359	56.07238	627.24847	785.79108	63.38493	631.10382	-2.92231	535.45496	-1044.55127	
1753	17.520	-711.92603	-55.57937	-586.60614	703.18945	-40.02879	-502.28970	-783.77966	56.70531	626.89050	786.64594	64.08466	630.84979	-1.94558	534.19250	-1045.35962	
1754	17.530	-710.90448	-56.26416	-586.79236	704.21008	-40.68238	-502.45468	-782.79138	57.65324	626.60645	787.61279	64.94350	630.46649	-1.00080	532.72992	-1046.42871	
1755	17.540	-710.15710	-57.07458	-586.72864	705.15729	-41.31697	-502.53064	-782.01483	58.50046	626.20087	788.47156	66.09179	630.31964	-0.25050	531.53528	-1047.07568	
1756	17.550	-709.44788	-57.65939	-586.98969	705.73126	-41.65467	-502.86691	-781.06299	59.04804	626.00641	789.47144	66.36126	629.98480	0.99456	530.41748	-1047.92700	
1757	17.560	-708.33984	-58.59110	-586.94116	706.82330	-42.59975	-502.88406	-780.09027	59.49007	625.91827	790.39825	66.72795	629.87091	1.52863	528.82837	-1048.77502	
1758	17.570	-707.38916	-59.33456	-586.94611	707.68018	-42.93324	-502.97934	-779.33765	60.11632	625.72095	791.34100	67.78815	629.46094	2.75830	527.63593	-1049.64893	
1759	17.580	-706.44336	-59.89422	-587.20929	708.70795	-43.91183	-503.29041	-778.22894	61.08654	625.17810	792.40228	68.41834	629.26794	3.71550	526.39020	-1050.30164	
1760	17.590	-705.46674	-60.84311	-587.39001	709.64948	-44.45799	-503.21082	-777.25183	62.03498	624.96625	793.20874	69.42756	629.09192	4.85295	525.11621	-1051.02954	
1761	17.600	-704.04785	-61.44190	-587.08624	710.51636	-44.94924	-503.45975	-776.64252	62.53413	624.73187	793.90265	69.92622	628.73456	5.79766	524.09131	-1051.60791	
1762	17.610	-703.61115	-61.86316	-587.44574	711.65369	-45.44614	-503.42630	-775.55463	63.13445	624.55597	795.11188	70.51791	628.46161	6.80599	522.74945	-1052.60632	
1763	17.620	-702.49121	-62.85095	-587.56659	712.45477	-45.97937	-503.70309	-774.58002	63.71091	624.25684	796.07568	71.29759	628.42383	7.19924	521.57928	-1053.50085	
1764	17.630	-701.66089	-63.24089	-587.83972	713.40204	-46.57624	-503.72980	-773.72308	64.43950	624.05560	797.04169	71.73936	627.97272	8.56079	520.63025	-1054.09729	
1765	17.640	-700.68121	-63.53197	-587.85284	714.64691	-46.91346	-503.84509	-772.64160	64.90675	623.94287	797.89606	72.37704	627.87415	9.42153	519.76306	-1054.68250	
1766	17.650	-699.56519	-64.36813	-587.98822	715.47144	-47.46933	-503.82837	-771.49988	65.26913	623.66333	798.99945	72.80959	627.75665	10.41055	518.83453	-1055.59448	
1767	17.660	-698.37524	-64.97800	-587.91754	716.82745	-47.74161	-503.96805	-770.48572	65.84792	623.47711	800.22668	73.03244	627.36035	11.30816	518.03265	-1055.79407	
1768	17.670	-697.54675	-65.22705	-587.94427	717.67517	-48.22131	-503.92001	-769.40662	66.30508	623.36713	801.15674	73.93057	627.42493	12.81260	517.04266	-1056.54651	
1769	17.680	-696.45593	-65.72620	-588.05328	718.52753	-48.57539	-504.22171	-768.53326	66.79984	623.23505	802.33386	74.42108	627.34174	13.60511	516.48724	-1056.63904	
1770	17.690	-695.14288	-66.31583	-587.97351	719.59509	-48.86401	-504.24326	-767.55511	67.18415	623.07306	803.22491	74.52025	627.14679	14.85148	515.60797	-1057.04822	
1771	17.700	-694.41992	-66.48825	-588.07257	720.65399	-49.29838	-504.28796	-766.36145	67.43306	622.91156	803.99786	75.06295	626.77936	15.81217	514.88898	-1057.48645	
1772	17.710	-693.38068	-66.77468	-588.21747	721.79480	-49.61642	-504.31705	-765.25848	67.82051	622.74908	805.50604	75.59528	626.68701	16.37948	514.45148	-1057.88794	
1773	17.720	-692.00708	-67.01449	-588.39099	722.89221	-49.92726	-504.33524	-764.14752	68.27504	622.69586	806.10815	75.67574	626.57867	17.83503	513.67322	-1058.36011	
1774	17.730	-690.93597	-67.74993	-588.43878	723.99091	-50.15485	-504.47668	-763.27277	68.64162	622.40588	807.63373	75.91326	626.39001	18.86587	513.02435	-1058.59937	
1775	17.740	-690.06952	-67.90335	-588.36987	725.05707	-50.44947	-504.56424	-762.02625	68.93291	622.38086	808.59357	76.55403	626.36456	20.34052	512.70093	-1058.85999	
1776	17.750	-688.96002	-68.10682	-588.41260	726.17834	-50.77932	-504.56000	-760.98486	69.15225	622.23901	809.74524	76.64994	626.42493	21.46605	512.16785	-1059.32751	
1777	17.760	-687.81201	-68.14171	-588.45239	727.19647	-50.53256	-504.69934	-759.87195	69.36512	622.37292	810.77246	76.95958	626.32959	22.43925	511.59259	-1059.50781	
1778	17.770	-686.84265	-68.42461	-588.54041	728.40491	-50.79356	-504.64297	-758.74554	69.62935	622.28479	811.76929	77.33625	626.27905	23.19222	511.38931	-1060.31189	
1779	17.780	-685.39069	-68.88175	-588.51611	729.70721	-51.12951	-504.49576	-757.58813	69.72784	622.07861	813.11078	77.61848	626.12128	24.29980	511.09085	-1060.41418	
1780	17.790	-683.97089	-69.09017	-588.24658	730.57928	-51.15095	-504.52283	-756.45844	69.75119	622.09863	814.06519	77.44530	625.81689	25.55131	510.83185	-1060.40271	
